<?xml version="1.0" standalone="no"?>
<!DOCTYPE svg PUBLIC "-//W3C//DTD SVG 20010904//EN"
 "http://www.w3.org/TR/2001/REC-SVG-20010904/DTD/svg10.dtd">
<svg version="1.0" xmlns="http://www.w3.org/2000/svg"
 width="176.000000pt" height="231.000000pt" viewBox="0 0 176.000000 231.000000"
 preserveAspectRatio="xMidYMid meet">

<g transform="translate(0.000000,231.000000) scale(0.100000,-0.100000)"
fill="#000000" stroke="none">
<path d="M370 1874 l0 -279 495 -685 c273 -377 510 -706 528 -731 46 -67 88
-93 151 -93 31 0 63 7 81 18 63 37 100 129 78 193 -9 24 -241 348 -1305 1817
l-28 39 0 -279z"/>
<path d="M159 410 c-66 -20 -119 -89 -119 -157 0 -50 41 -114 90 -140 55 -29
95 -29 150 0 117 62 115 229 -4 286 -44 22 -73 25 -117 11z"/>
</g>
</svg>
